<svg width="70" height="80" viewBox="0 0 70 80" fill="none" xmlns="http://www.w3.org/2000/svg">
<g clip-path="url(#clip0)">
<path d="M10.1613 4C10.1613 1.79086 11.9521 0 14.1613 0H49.6774L70 20.5714V76C70 78.2091 68.2091 80 66 80H14.1613C11.9521 80 10.1613 78.2091 10.1613 76V4Z" fill="#F3F4F7"/>
<rect y="38" width="60" height="29" rx="2" fill="#2FC787"/>
<path d="M20.9772 57.29L22.2372 57.2C23.3052 57.128 23.8392 56.54 23.8392 55.436V46.31H26.1612V55.418C26.1612 56.546 25.8612 57.422 25.2612 58.046C24.6732 58.658 23.7912 59 22.6152 59.072L21.1392 59.162L20.9772 57.29ZM34.1063 59.162C33.1343 59.162 32.2223 59.03 31.3703 58.766C30.5183 58.502 29.7983 58.13 29.2103 57.65L29.9843 55.958C30.5963 56.426 31.2383 56.768 31.9103 56.984C32.5943 57.2 33.3323 57.308 34.1243 57.308C35.0003 57.308 35.6723 57.158 36.1403 56.858C36.6203 56.546 36.8603 56.114 36.8603 55.562C36.8603 55.082 36.6383 54.716 36.1943 54.464C35.7623 54.212 35.0363 53.972 34.0163 53.744C32.9603 53.516 32.1023 53.252 31.4423 52.952C30.7823 52.652 30.2843 52.268 29.9483 51.8C29.6123 51.332 29.4443 50.738 29.4443 50.018C29.4443 49.274 29.6483 48.608 30.0563 48.02C30.4643 47.432 31.0403 46.976 31.7843 46.652C32.5283 46.316 33.3863 46.148 34.3583 46.148C35.2463 46.148 36.0923 46.286 36.8963 46.562C37.7003 46.826 38.3603 47.192 38.8763 47.66L38.1023 49.352C36.9743 48.452 35.7263 48.002 34.3583 48.002C33.5423 48.002 32.8943 48.17 32.4143 48.506C31.9463 48.83 31.7123 49.286 31.7123 49.874C31.7123 50.366 31.9223 50.744 32.3423 51.008C32.7623 51.272 33.4763 51.518 34.4843 51.746C35.5523 51.986 36.4163 52.256 37.0763 52.556C37.7483 52.844 38.2583 53.216 38.6063 53.672C38.9663 54.128 39.1463 54.704 39.1463 55.4C39.1463 56.156 38.9423 56.822 38.5343 57.398C38.1383 57.962 37.5563 58.4 36.7883 58.712C36.0323 59.012 35.1383 59.162 34.1063 59.162Z" fill="white"/>
<path d="M49.6774 14.8571V0L70 20.5714H55.3226C51.9355 20.5714 49.6774 18.2857 49.6774 14.8571Z" fill="#D7D9E0"/>
</g>
<defs>
<clipPath id="clip0">
<rect width="70" height="80" fill="white"/>
</clipPath>
</defs>
</svg>
