<svg width="70" height="80" viewBox="0 0 70 80" fill="none" xmlns="http://www.w3.org/2000/svg">
<g clip-path="url(#clip0)">
<path d="M10.1613 4C10.1613 1.79086 11.9521 0 14.1613 0H49.6774L70 20.5714V76C70 78.2091 68.2091 80 66 80H14.1613C11.9521 80 10.1613 78.2091 10.1613 76V4Z" fill="#F3F4F7"/>
<rect y="38" width="60" height="29" rx="2" fill="#2FC787"/>
<path d="M25.1203 59H22.4203L18.9823 54.248L15.5263 59H12.8263L17.6683 52.538L13.0063 46.31H15.7063L18.9823 50.864L22.2763 46.31H24.9763L20.2963 52.556L25.1203 59ZM27.2274 46.31H29.5494V57.092H35.4714V59H27.2274V46.31ZM42.1852 59.162C41.2132 59.162 40.3012 59.03 39.4492 58.766C38.5972 58.502 37.8772 58.13 37.2892 57.65L38.0632 55.958C38.6752 56.426 39.3172 56.768 39.9892 56.984C40.6732 57.2 41.4112 57.308 42.2032 57.308C43.0792 57.308 43.7512 57.158 44.2192 56.858C44.6992 56.546 44.9392 56.114 44.9392 55.562C44.9392 55.082 44.7172 54.716 44.2732 54.464C43.8412 54.212 43.1152 53.972 42.0952 53.744C41.0392 53.516 40.1812 53.252 39.5212 52.952C38.8612 52.652 38.3632 52.268 38.0272 51.8C37.6912 51.332 37.5232 50.738 37.5232 50.018C37.5232 49.274 37.7272 48.608 38.1352 48.02C38.5432 47.432 39.1192 46.976 39.8632 46.652C40.6072 46.316 41.4652 46.148 42.4372 46.148C43.3252 46.148 44.1712 46.286 44.9752 46.562C45.7792 46.826 46.4392 47.192 46.9552 47.66L46.1812 49.352C45.0532 48.452 43.8052 48.002 42.4372 48.002C41.6212 48.002 40.9732 48.17 40.4932 48.506C40.0252 48.83 39.7912 49.286 39.7912 49.874C39.7912 50.366 40.0012 50.744 40.4212 51.008C40.8412 51.272 41.5552 51.518 42.5632 51.746C43.6312 51.986 44.4952 52.256 45.1552 52.556C45.8272 52.844 46.3372 53.216 46.6852 53.672C47.0452 54.128 47.2252 54.704 47.2252 55.4C47.2252 56.156 47.0212 56.822 46.6132 57.398C46.2172 57.962 45.6352 58.4 44.8672 58.712C44.1112 59.012 43.2172 59.162 42.1852 59.162Z" fill="white"/>
<path d="M49.6774 14.8571V0L70 20.5714H55.3226C51.9355 20.5714 49.6774 18.2857 49.6774 14.8571Z" fill="#D7D9E0"/>
</g>
<defs>
<clipPath id="clip0">
<rect width="70" height="80" fill="white"/>
</clipPath>
</defs>
</svg>
