<svg width="70" height="80" viewBox="0 0 70 80" fill="none" xmlns="http://www.w3.org/2000/svg">
<g clip-path="url(#clip0)">
<path d="M10.1613 4C10.1613 1.79086 11.9522 0 14.1613 0H49.6774L70 20.5714V76C70 78.2091 68.2091 80 66 80H14.1613C11.9521 80 10.1613 78.2091 10.1613 76V4Z" fill="#F3F4F7"/>
<path d="M49.6774 14.8571V0L70 20.5714H55.3226C51.9355 20.5714 49.6774 18.2857 49.6774 14.8571Z" fill="#D7D9E0"/>
<rect y="38" width="60" height="29" rx="2" fill="#32BFC8"/>
<path d="M25.4193 57.146V59H16.0773V57.308L22.5933 48.164H16.0773V46.31H25.2213V47.984L18.6693 57.146H25.4193ZM28.3094 46.31H30.6314V59H28.3094V46.31ZM34.2719 46.31H39.8159C41.1719 46.31 42.2279 46.652 42.9839 47.336C43.7399 48.008 44.1179 48.956 44.1179 50.18C44.1179 51.404 43.7399 52.358 42.9839 53.042C42.2279 53.726 41.1719 54.068 39.8159 54.068H36.5939V59H34.2719V46.31ZM39.5279 52.286C41.1239 52.286 41.9219 51.59 41.9219 50.198C41.9219 49.49 41.7239 48.968 41.3279 48.632C40.9319 48.284 40.3319 48.11 39.5279 48.11H36.5939V52.286H39.5279Z" fill="white"/>
</g>
<defs>
<clipPath id="clip0">
<rect width="70" height="80" fill="white"/>
</clipPath>
</defs>
</svg>
