<svg width="70" height="80" viewBox="0 0 70 80" fill="none" xmlns="http://www.w3.org/2000/svg">
<g clip-path="url(#clip0)">
<path d="M10.1613 4C10.1613 1.79086 11.9522 0 14.1613 0H49.6774L70 20.5714V76C70 78.2091 68.2091 80 66 80H14.1613C11.9522 80 10.1613 78.2091 10.1613 76V4Z" fill="#F3F4F7"/>
<rect y="38" width="60" height="29" rx="2" fill="#2FC787"/>
<path d="M17.4503 46.31V59H15.1823V53.492H8.68427V59H6.39827V46.31H8.68427V51.62H15.1823V46.31H17.4503ZM23.1675 48.218H19.0275V46.31H29.6295V48.218H25.4895V59H23.1675V48.218ZM43.6026 46.31V59H41.5506V50.612L38.2026 56.948H36.6546L33.2886 50.702L33.3066 59H31.2546V46.31H33.0906L37.4466 54.608L41.7846 46.31H43.6026ZM46.3534 46.31H48.6754V57.092H54.5974V59H46.3534V46.31Z" fill="white"/>
<path d="M49.6774 14.8571V0L70 20.5714H55.3226C51.9355 20.5714 49.6774 18.2857 49.6774 14.8571Z" fill="#D7D9E0"/>
</g>
<defs>
<clipPath id="clip0">
<rect width="70" height="80" fill="white"/>
</clipPath>
</defs>
</svg>
