<svg width="70" height="80" viewBox="0 0 70 80" fill="none" xmlns="http://www.w3.org/2000/svg">
<g clip-path="url(#clip0)">
<path d="M10.1613 4C10.1613 1.79086 11.9522 0 14.1613 0H49.6774L70 20.5714V76C70 78.2091 68.2091 80 66 80H14.1613C11.9521 80 10.1613 78.2091 10.1613 76V4Z" fill="#F3F4F7"/>
<path d="M49.6774 14.8571V0L70 20.5714H55.3226C51.9355 20.5714 49.6774 18.2857 49.6774 14.8571Z" fill="#D7D9E0"/>
<rect y="38" width="60" height="29" rx="2" fill="#32BFC8"/>
<path d="M21.481 59H18.961L16.783 54.95C16.579 54.566 16.327 54.296 16.027 54.14C15.727 53.984 15.349 53.906 14.893 53.906H13.129V59H10.843V46.31H16.459C17.899 46.31 18.991 46.634 19.735 47.282C20.491 47.918 20.869 48.842 20.869 50.054C20.869 51.026 20.593 51.83 20.041 52.466C19.501 53.09 18.733 53.498 17.737 53.69C18.409 53.87 18.949 54.344 19.357 55.112L21.481 59ZM16.135 52.124C17.011 52.124 17.653 51.962 18.061 51.638C18.469 51.302 18.673 50.792 18.673 50.108C18.673 49.412 18.469 48.908 18.061 48.596C17.653 48.272 17.011 48.11 16.135 48.11H13.111V52.124H16.135ZM32.542 56.03H26.368L25.09 59H22.75L28.492 46.31H30.382L36.124 59H33.82L32.542 56.03ZM31.768 54.23L29.446 48.83L27.124 54.23H31.768ZM49.0154 59H46.4954L44.3174 54.95C44.1134 54.566 43.8614 54.296 43.5614 54.14C43.2614 53.984 42.8834 53.906 42.4274 53.906H40.6634V59H38.3774V46.31H43.9934C45.4334 46.31 46.5254 46.634 47.2694 47.282C48.0254 47.918 48.4034 48.842 48.4034 50.054C48.4034 51.026 48.1274 51.83 47.5754 52.466C47.0354 53.09 46.2674 53.498 45.2714 53.69C45.9434 53.87 46.4834 54.344 46.8914 55.112L49.0154 59ZM43.6694 52.124C44.5454 52.124 45.1874 51.962 45.5954 51.638C46.0034 51.302 46.2074 50.792 46.2074 50.108C46.2074 49.412 46.0034 48.908 45.5954 48.596C45.1874 48.272 44.5454 48.11 43.6694 48.11H40.6454V52.124H43.6694Z" fill="white"/>
</g>
<defs>
<clipPath id="clip0">
<rect width="70" height="80" fill="white"/>
</clipPath>
</defs>
</svg>
