<svg width="70" height="80" viewBox="0 0 70 80" fill="none" xmlns="http://www.w3.org/2000/svg">
<g clip-path="url(#clip0)">
<path d="M9.30646 4C9.30646 1.79086 11.0973 0 13.3065 0H49.3871L70 20.5714V76C70 78.2091 68.2091 80 66 80H13.3065C11.0973 80 9.30646 78.2091 9.30646 76V4Z" fill="#F3F4F7"/>
<rect y="38" width="60" height="29" rx="2" fill="#EF5164"/>
<path d="M10.7024 46.31H16.2464C17.6024 46.31 18.6584 46.652 19.4144 47.336C20.1704 48.008 20.5484 48.956 20.5484 50.18C20.5484 51.404 20.1704 52.358 19.4144 53.042C18.6584 53.726 17.6024 54.068 16.2464 54.068H13.0244V59H10.7024V46.31ZM15.9584 52.286C17.5544 52.286 18.3524 51.59 18.3524 50.198C18.3524 49.49 18.1544 48.968 17.7584 48.632C17.3624 48.284 16.7624 48.11 15.9584 48.11H13.0244V52.286H15.9584ZM34.1952 46.31V59H32.4492L25.6452 50.144V59H23.4852V46.31H25.2132L32.0172 55.148V46.31H34.1952ZM48.4165 52.142V58.226C47.8405 58.514 47.1385 58.742 46.3105 58.91C45.4945 59.078 44.6605 59.162 43.8085 59.162C42.5005 59.162 41.3665 58.904 40.4065 58.388C39.4465 57.86 38.7085 57.11 38.1925 56.138C37.6885 55.154 37.4365 53.99 37.4365 52.646C37.4365 51.314 37.6885 50.162 38.1925 49.19C38.7085 48.206 39.4345 47.456 40.3705 46.94C41.3185 46.412 42.4285 46.148 43.7005 46.148C44.5885 46.148 45.4225 46.28 46.2025 46.544C46.9825 46.796 47.6305 47.162 48.1465 47.642L47.3725 49.316C46.7845 48.86 46.2025 48.536 45.6265 48.344C45.0625 48.14 44.4385 48.038 43.7545 48.038C42.4465 48.038 41.4565 48.428 40.7845 49.208C40.1245 49.976 39.7945 51.122 39.7945 52.646C39.7945 55.766 41.1625 57.326 43.8985 57.326C44.7145 57.326 45.5305 57.212 46.3465 56.984V53.798H43.6105V52.142H48.4165Z" fill="white"/>
<path d="M49.3871 14.8571V0L70 20.5714H55.1129C51.6774 20.5714 49.3871 18.2857 49.3871 14.8571Z" fill="#D7D9E0"/>
</g>
<defs>
<clipPath id="clip0">
<rect width="70" height="80" fill="white"/>
</clipPath>
</defs>
</svg>
