<svg width="70" height="80" viewBox="0 0 70 80" fill="none" xmlns="http://www.w3.org/2000/svg">
<g clip-path="url(#clip0)">
<path d="M10.1613 4C10.1613 1.79086 11.9521 0 14.1613 0H49.6774L70 20.5714V76C70 78.2091 68.2091 80 66 80H14.1613C11.9521 80 10.1613 78.2091 10.1613 76V4Z" fill="#F3F4F7"/>
<rect y="38" width="60" height="29" rx="2" fill="#2FC787"/>
<path d="M10.6946 46.31H16.2386C17.5946 46.31 18.6506 46.652 19.4066 47.336C20.1626 48.008 20.5406 48.956 20.5406 50.18C20.5406 51.404 20.1626 52.358 19.4066 53.042C18.6506 53.726 17.5946 54.068 16.2386 54.068H13.0166V59H10.6946V46.31ZM15.9506 52.286C17.5466 52.286 18.3446 51.59 18.3446 50.198C18.3446 49.49 18.1466 48.968 17.7506 48.632C17.3546 48.284 16.7546 48.11 15.9506 48.11H13.0166V52.286H15.9506ZM34.5294 46.31V59H32.2614V53.492H25.7634V59H23.4774V46.31H25.7634V51.62H32.2614V46.31H34.5294ZM38.1586 46.31H43.7026C45.0586 46.31 46.1146 46.652 46.8706 47.336C47.6266 48.008 48.0046 48.956 48.0046 50.18C48.0046 51.404 47.6266 52.358 46.8706 53.042C46.1146 53.726 45.0586 54.068 43.7026 54.068H40.4806V59H38.1586V46.31ZM43.4146 52.286C45.0106 52.286 45.8086 51.59 45.8086 50.198C45.8086 49.49 45.6106 48.968 45.2146 48.632C44.8186 48.284 44.2186 48.11 43.4146 48.11H40.4806V52.286H43.4146Z" fill="white"/>
<path d="M49.6774 14.8571V0L70 20.5714H55.3226C51.9355 20.5714 49.6774 18.2857 49.6774 14.8571Z" fill="#D7D9E0"/>
</g>
<defs>
<clipPath id="clip0">
<rect width="70" height="80" fill="white"/>
</clipPath>
</defs>
</svg>
