<svg width="70" height="80" viewBox="0 0 70 80" fill="none" xmlns="http://www.w3.org/2000/svg">
<g clip-path="url(#clip0)">
<path d="M10.1613 4C10.1613 1.79086 11.9521 0 14.1613 0H49.6774L70 20.5714V76C70 78.2091 68.2091 80 66 80H14.1613C11.9521 80 10.1613 78.2091 10.1613 76V4Z" fill="#F3F4F7"/>
<rect y="38" width="60" height="29" rx="2" fill="#2FC787"/>
<path d="M11.6438 46.31H17.1878C18.5438 46.31 19.5998 46.652 20.3558 47.336C21.1118 48.008 21.4898 48.956 21.4898 50.18C21.4898 51.404 21.1118 52.358 20.3558 53.042C19.5998 53.726 18.5438 54.068 17.1878 54.068H13.9658V59H11.6438V46.31ZM16.8998 52.286C18.4958 52.286 19.2938 51.59 19.2938 50.198C19.2938 49.49 19.0958 48.968 18.6998 48.632C18.3038 48.284 17.7038 48.11 16.8998 48.11H13.9658V52.286H16.8998ZM24.4266 46.31H29.1066C31.1826 46.31 32.7906 46.868 33.9306 47.984C35.0826 49.088 35.6586 50.642 35.6586 52.646C35.6586 54.65 35.0826 56.21 33.9306 57.326C32.7906 58.442 31.1826 59 29.1066 59H24.4266V46.31ZM28.9626 57.11C31.8786 57.11 33.3366 55.622 33.3366 52.646C33.3366 49.682 31.8786 48.2 28.9626 48.2H26.7486V57.11H28.9626ZM38.8969 46.31H47.2129V48.164H41.1829V51.62H46.8529V53.474H41.1829V59H38.8969V46.31Z" fill="white"/>
<path d="M49.6774 14.8571V0L70 20.5714H55.3226C51.9355 20.5714 49.6774 18.2857 49.6774 14.8571Z" fill="#D7D9E0"/>
</g>
<defs>
<clipPath id="clip0">
<rect width="70" height="80" fill="white"/>
</clipPath>
</defs>
</svg>
