<svg width="70" height="80" viewBox="0 0 70 80" fill="none" xmlns="http://www.w3.org/2000/svg">
<g clip-path="url(#clip0)">
<path d="M10.1613 4C10.1613 1.79086 11.9522 0 14.1613 0H49.6774L70 20.5714V76C70 78.2091 68.2091 80 66 80H14.1613C11.9522 80 10.1613 78.2091 10.1613 76V4Z" fill="#F3F4F7"/>
<rect y="38" width="60" height="29" rx="2" fill="#2FC787"/>
<path d="M15.4404 48.218H11.3004V46.31H21.9024V48.218H17.7624V59H15.4404V48.218ZM35.1374 59H32.4374L28.9994 54.248L25.5434 59H22.8434L27.6854 52.538L23.0234 46.31H25.7234L28.9994 50.864L32.2934 46.31H34.9934L30.3134 52.556L35.1374 59ZM40.2326 48.218H36.0926V46.31H46.6946V48.218H42.5546V59H40.2326V48.218Z" fill="white"/>
<path d="M49.6774 14.8571V0L70 20.5714H55.3226C51.9355 20.5714 49.6774 18.2857 49.6774 14.8571Z" fill="#D7D9E0"/>
</g>
<defs>
<clipPath id="clip0">
<rect width="70" height="80" fill="white"/>
</clipPath>
</defs>
</svg>
