<svg width="70" height="80" viewBox="0 0 70 80" fill="none" xmlns="http://www.w3.org/2000/svg">
<g clip-path="url(#clip0)">
<path d="M9.30646 4C9.30646 1.79086 11.0973 0 13.3065 0H49.3871L70 20.5714V76C70 78.2091 68.2091 80 66 80H13.3065C11.0973 80 9.30646 78.2091 9.30646 76V4Z" fill="#F3F4F7"/>
<rect y="38" width="60" height="29" rx="2" fill="#EF5164"/>
<path d="M12.2508 57.29L13.5108 57.2C14.5788 57.128 15.1128 56.54 15.1128 55.436V46.31H17.4348V55.418C17.4348 56.546 17.1348 57.422 16.5348 58.046C15.9468 58.658 15.0648 59 13.8888 59.072L12.4128 59.162L12.2508 57.29ZM21.078 46.31H26.622C27.978 46.31 29.034 46.652 29.79 47.336C30.546 48.008 30.924 48.956 30.924 50.18C30.924 51.404 30.546 52.358 29.79 53.042C29.034 53.726 27.978 54.068 26.622 54.068H23.4V59H21.078V46.31ZM26.334 52.286C27.93 52.286 28.728 51.59 28.728 50.198C28.728 49.49 28.53 48.968 28.134 48.632C27.738 48.284 27.138 48.11 26.334 48.11H23.4V52.286H26.334ZM44.392 52.142V58.226C43.816 58.514 43.114 58.742 42.286 58.91C41.47 59.078 40.636 59.162 39.784 59.162C38.476 59.162 37.342 58.904 36.382 58.388C35.422 57.86 34.684 57.11 34.168 56.138C33.664 55.154 33.412 53.99 33.412 52.646C33.412 51.314 33.664 50.162 34.168 49.19C34.684 48.206 35.41 47.456 36.346 46.94C37.294 46.412 38.404 46.148 39.676 46.148C40.564 46.148 41.398 46.28 42.178 46.544C42.958 46.796 43.606 47.162 44.122 47.642L43.348 49.316C42.76 48.86 42.178 48.536 41.602 48.344C41.038 48.14 40.414 48.038 39.73 48.038C38.422 48.038 37.432 48.428 36.76 49.208C36.1 49.976 35.77 51.122 35.77 52.646C35.77 55.766 37.138 57.326 39.874 57.326C40.69 57.326 41.506 57.212 42.322 56.984V53.798H39.586V52.142H44.392Z" fill="white"/>
<path d="M49.3871 14.8571V0L70 20.5714H55.1129C51.6774 20.5714 49.3871 18.2857 49.3871 14.8571Z" fill="#D7D9E0"/>
</g>
<defs>
<clipPath id="clip0">
<rect width="70" height="80" fill="white"/>
</clipPath>
</defs>
</svg>
