<svg width="70" height="80" viewBox="0 0 70 80" fill="none" xmlns="http://www.w3.org/2000/svg">
<g clip-path="url(#clip0)">
<path d="M10.1613 4C10.1613 1.79086 11.9521 0 14.1613 0H49.6774L70 20.5714V76C70 78.2091 68.2091 80 66 80H14.1613C11.9521 80 10.1613 78.2091 10.1613 76V4Z" fill="#F3F4F7"/>
<rect y="38" width="60" height="29" rx="2" fill="#2FC787"/>
<path d="M11.4696 46.31H16.1496C18.2256 46.31 19.8336 46.868 20.9736 47.984C22.1256 49.088 22.7016 50.642 22.7016 52.646C22.7016 54.65 22.1256 56.21 20.9736 57.326C19.8336 58.442 18.2256 59 16.1496 59H11.4696V46.31ZM16.0056 57.11C18.9216 57.11 20.3796 55.622 20.3796 52.646C20.3796 49.682 18.9216 48.2 16.0056 48.2H13.7916V57.11H16.0056ZM30.6919 59.162C29.4559 59.162 28.3819 58.898 27.4699 58.37C26.5699 57.842 25.8739 57.086 25.3819 56.102C24.8899 55.118 24.6439 53.966 24.6439 52.646C24.6439 51.326 24.8839 50.18 25.3639 49.208C25.8559 48.224 26.5579 47.468 27.4699 46.94C28.3819 46.412 29.4559 46.148 30.6919 46.148C31.9279 46.148 32.9959 46.412 33.8959 46.94C34.8079 47.468 35.5039 48.224 35.9839 49.208C36.4759 50.18 36.7219 51.326 36.7219 52.646C36.7219 53.966 36.4759 55.118 35.9839 56.102C35.4919 57.086 34.7899 57.842 33.8779 58.37C32.9779 58.898 31.9159 59.162 30.6919 59.162ZM30.6919 57.308C31.8559 57.308 32.7619 56.906 33.4099 56.102C34.0699 55.298 34.3999 54.146 34.3999 52.646C34.3999 51.146 34.0699 50 33.4099 49.208C32.7619 48.404 31.8559 48.002 30.6919 48.002C29.5159 48.002 28.5979 48.404 27.9379 49.208C27.2899 50 26.9659 51.146 26.9659 52.646C26.9659 54.146 27.2899 55.298 27.9379 56.102C28.5979 56.906 29.5159 57.308 30.6919 57.308ZM44.8272 59.162C43.5792 59.162 42.4872 58.898 41.5512 58.37C40.6272 57.83 39.9132 57.068 39.4092 56.084C38.9172 55.1 38.6712 53.954 38.6712 52.646C38.6712 51.338 38.9172 50.198 39.4092 49.226C39.9132 48.242 40.6272 47.486 41.5512 46.958C42.4872 46.418 43.5792 46.148 44.8272 46.148C45.6792 46.148 46.4832 46.28 47.2392 46.544C47.9952 46.808 48.6312 47.18 49.1472 47.66L48.3732 49.352C47.7972 48.896 47.2272 48.566 46.6632 48.362C46.0992 48.146 45.4992 48.038 44.8632 48.038C43.6392 48.038 42.6912 48.434 42.0192 49.226C41.3592 50.018 41.0292 51.158 41.0292 52.646C41.0292 54.146 41.3592 55.292 42.0192 56.084C42.6912 56.876 43.6392 57.272 44.8632 57.272C45.4992 57.272 46.0992 57.17 46.6632 56.966C47.2272 56.75 47.7972 56.414 48.3732 55.958L49.1472 57.65C48.6312 58.13 47.9952 58.502 47.2392 58.766C46.4832 59.03 45.6792 59.162 44.8272 59.162Z" fill="white"/>
<path d="M49.6774 14.8571V0L70 20.5714H55.3226C51.9355 20.5714 49.6774 18.2857 49.6774 14.8571Z" fill="#D7D9E0"/>
</g>
<defs>
<clipPath id="clip0">
<rect width="70" height="80" fill="white"/>
</clipPath>
</defs>
</svg>
