<svg width="70" height="80" viewBox="0 0 70 80" fill="none" xmlns="http://www.w3.org/2000/svg">
<g clip-path="url(#clip0)">
<path d="M10.1613 4C10.1613 1.79086 11.9521 0 14.1613 0H49.6774L70 20.5714V76C70 78.2091 68.2091 80 66 80H14.1613C11.9521 80 10.1613 78.2091 10.1613 76V4Z" fill="#F3F4F7"/>
<rect y="38" width="60" height="29" rx="2" fill="#2FC787"/>
<path d="M20.1641 59.162C18.9161 59.162 17.8241 58.898 16.8881 58.37C15.9641 57.83 15.2501 57.068 14.7461 56.084C14.2541 55.1 14.0081 53.954 14.0081 52.646C14.0081 51.338 14.2541 50.198 14.7461 49.226C15.2501 48.242 15.9641 47.486 16.8881 46.958C17.8241 46.418 18.9161 46.148 20.1641 46.148C21.0161 46.148 21.8201 46.28 22.5761 46.544C23.3321 46.808 23.9681 47.18 24.4841 47.66L23.7101 49.352C23.1341 48.896 22.5641 48.566 22.0001 48.362C21.4361 48.146 20.8361 48.038 20.2001 48.038C18.9761 48.038 18.0281 48.434 17.3561 49.226C16.6961 50.018 16.3661 51.158 16.3661 52.646C16.3661 54.146 16.6961 55.292 17.3561 56.084C18.0281 56.876 18.9761 57.272 20.2001 57.272C20.8361 57.272 21.4361 57.17 22.0001 56.966C22.5641 56.75 23.1341 56.414 23.7101 55.958L24.4841 57.65C23.9681 58.13 23.3321 58.502 22.5761 58.766C21.8201 59.03 21.0161 59.162 20.1641 59.162ZM30.6768 59.162C29.7048 59.162 28.7928 59.03 27.9408 58.766C27.0888 58.502 26.3688 58.13 25.7808 57.65L26.5548 55.958C27.1668 56.426 27.8088 56.768 28.4808 56.984C29.1648 57.2 29.9028 57.308 30.6948 57.308C31.5708 57.308 32.2428 57.158 32.7108 56.858C33.1908 56.546 33.4308 56.114 33.4308 55.562C33.4308 55.082 33.2088 54.716 32.7648 54.464C32.3328 54.212 31.6068 53.972 30.5868 53.744C29.5308 53.516 28.6728 53.252 28.0128 52.952C27.3528 52.652 26.8548 52.268 26.5188 51.8C26.1828 51.332 26.0148 50.738 26.0148 50.018C26.0148 49.274 26.2188 48.608 26.6268 48.02C27.0348 47.432 27.6108 46.976 28.3548 46.652C29.0988 46.316 29.9568 46.148 30.9288 46.148C31.8168 46.148 32.6628 46.286 33.4668 46.562C34.2708 46.826 34.9308 47.192 35.4468 47.66L34.6728 49.352C33.5448 48.452 32.2968 48.002 30.9288 48.002C30.1128 48.002 29.4648 48.17 28.9848 48.506C28.5168 48.83 28.2828 49.286 28.2828 49.874C28.2828 50.366 28.4928 50.744 28.9128 51.008C29.3328 51.272 30.0468 51.518 31.0548 51.746C32.1228 51.986 32.9868 52.256 33.6468 52.556C34.3188 52.844 34.8288 53.216 35.1768 53.672C35.5368 54.128 35.7168 54.704 35.7168 55.4C35.7168 56.156 35.5128 56.822 35.1048 57.398C34.7088 57.962 34.1268 58.4 33.3588 58.712C32.6028 59.012 31.7088 59.162 30.6768 59.162ZM42.1554 59.162C41.1834 59.162 40.2714 59.03 39.4194 58.766C38.5674 58.502 37.8474 58.13 37.2594 57.65L38.0334 55.958C38.6454 56.426 39.2874 56.768 39.9594 56.984C40.6434 57.2 41.3814 57.308 42.1734 57.308C43.0494 57.308 43.7214 57.158 44.1894 56.858C44.6694 56.546 44.9094 56.114 44.9094 55.562C44.9094 55.082 44.6874 54.716 44.2434 54.464C43.8114 54.212 43.0854 53.972 42.0654 53.744C41.0094 53.516 40.1514 53.252 39.4914 52.952C38.8314 52.652 38.3334 52.268 37.9974 51.8C37.6614 51.332 37.4934 50.738 37.4934 50.018C37.4934 49.274 37.6974 48.608 38.1054 48.02C38.5134 47.432 39.0894 46.976 39.8334 46.652C40.5774 46.316 41.4354 46.148 42.4074 46.148C43.2954 46.148 44.1414 46.286 44.9454 46.562C45.7494 46.826 46.4094 47.192 46.9254 47.66L46.1514 49.352C45.0234 48.452 43.7754 48.002 42.4074 48.002C41.5914 48.002 40.9434 48.17 40.4634 48.506C39.9954 48.83 39.7614 49.286 39.7614 49.874C39.7614 50.366 39.9714 50.744 40.3914 51.008C40.8114 51.272 41.5254 51.518 42.5334 51.746C43.6014 51.986 44.4654 52.256 45.1254 52.556C45.7974 52.844 46.3074 53.216 46.6554 53.672C47.0154 54.128 47.1954 54.704 47.1954 55.4C47.1954 56.156 46.9914 56.822 46.5834 57.398C46.1874 57.962 45.6054 58.4 44.8374 58.712C44.0814 59.012 43.1874 59.162 42.1554 59.162Z" fill="white"/>
<path d="M49.6774 14.8571V0L70 20.5714H55.3226C51.9355 20.5714 49.6774 18.2857 49.6774 14.8571Z" fill="#D7D9E0"/>
</g>
<defs>
<clipPath id="clip0">
<rect width="70" height="80" fill="white"/>
</clipPath>
</defs>
</svg>
