<svg width="16" height="16" viewBox="0 0 16 16" fill="none" xmlns="http://www.w3.org/2000/svg">
<path d="M13.0688 5.5375C12.9 5.48125 12.7313 5.42812 12.5625 5.37812C12.5906 5.2625 12.6156 5.14687 12.6406 5.03125C13.025 3.16875 12.7719 1.67187 11.9187 1.17812C11.0969 0.706248 9.75625 1.19687 8.4 2.37812C8.26562 2.49375 8.13437 2.61562 8.00937 2.7375C7.925 2.65625 7.8375 2.575 7.75 2.49687C6.32812 1.23437 4.90313 0.703123 4.05 1.2C3.23125 1.675 2.9875 3.08437 3.33125 4.84687C3.36562 5.02187 3.40313 5.19375 3.44688 5.36875C3.24688 5.425 3.05 5.4875 2.86562 5.55312C1.19687 6.13125 0 7.04375 0 7.9875C0 8.9625 1.275 9.94062 3.00938 10.5344C3.15 10.5812 3.29063 10.6281 3.43438 10.6687C3.3875 10.8562 3.34688 11.0406 3.30938 11.2312C2.98125 12.9656 3.2375 14.3406 4.05625 14.8125C4.9 15.3 6.31875 14.8 7.7 13.5906C7.80937 13.4937 7.91875 13.3937 8.02812 13.2875C8.16562 13.4219 8.30938 13.55 8.45312 13.675C9.79062 14.825 11.1125 15.2906 11.9281 14.8187C12.7719 14.3312 13.0469 12.8531 12.6906 11.0531C12.6625 10.9156 12.6313 10.775 12.5969 10.6312C12.6969 10.6031 12.7938 10.5719 12.8906 10.5406C14.6938 9.94375 16 8.97812 16 7.9875C16 7.04062 14.7688 6.12187 13.0688 5.5375V5.5375ZM8.84062 2.88437C10.0031 1.87187 11.0875 1.475 11.5813 1.75937C12.1094 2.0625 12.3125 3.2875 11.9812 4.89687C11.9594 5.00312 11.9375 5.10625 11.9094 5.20937C11.2156 5.05312 10.5125 4.94062 9.80625 4.87812C9.4 4.29687 8.95625 3.74062 8.475 3.21875C8.59688 3.10312 8.71562 2.99375 8.84062 2.88437V2.88437ZM5.225 9.60937C5.38437 9.88125 5.54688 10.1531 5.71875 10.4187C5.23125 10.3656 4.74688 10.2875 4.26875 10.1844C4.40625 9.73437 4.57812 9.26875 4.77812 8.79375C4.92187 9.06875 5.06875 9.34062 5.225 9.60937V9.60937ZM4.27812 5.85C4.72812 5.75 5.20625 5.66875 5.70312 5.60625C5.5375 5.86562 5.375 6.13125 5.22188 6.4C5.06875 6.66562 4.91875 6.9375 4.77812 7.2125C4.58125 6.74687 4.41562 6.29062 4.27812 5.85ZM5.13438 8.00312C5.34063 7.57187 5.56562 7.15 5.80312 6.73437C6.04062 6.31875 6.29688 5.91562 6.56563 5.51875C7.03438 5.48437 7.5125 5.46562 8 5.46562C8.4875 5.46562 8.96875 5.48437 9.43437 5.51875C9.7 5.9125 9.95313 6.31562 10.1938 6.72812C10.4344 7.14062 10.6594 7.5625 10.8719 7.99062C10.6625 8.42187 10.4375 8.84687 10.1969 9.26562C9.95937 9.68125 9.70625 10.0844 9.44063 10.4844C8.975 10.5187 8.49062 10.5344 8 10.5344C7.50938 10.5344 7.03437 10.5187 6.575 10.4906C6.30312 10.0937 6.04688 9.6875 5.80625 9.27187C5.56563 8.85625 5.34375 8.43437 5.13438 8.00312ZM10.7781 9.60312C10.9375 9.32812 11.0875 9.05 11.2344 8.76875C11.4344 9.22187 11.6094 9.68125 11.7625 10.1531C11.2781 10.2625 10.7875 10.3469 10.2937 10.4031C10.4625 10.1406 10.6219 9.87187 10.7781 9.60312ZM11.2281 7.2125C11.0812 6.9375 10.9312 6.6625 10.775 6.39375C10.6219 6.12812 10.4625 5.86562 10.2969 5.60625C10.8 5.66875 11.2812 5.75312 11.7312 5.85625C11.5875 6.31875 11.4187 6.76875 11.2281 7.2125V7.2125ZM8.00625 3.69687C8.33438 4.05312 8.64375 4.42812 8.93125 4.81562C8.3125 4.7875 7.69063 4.7875 7.07188 4.81562C7.37813 4.4125 7.69375 4.0375 8.00625 3.69687ZM4.38125 1.78125C4.90625 1.475 6.07188 1.9125 7.3 3C7.37813 3.06875 7.45625 3.14375 7.5375 3.21875C7.05312 3.74062 6.60625 4.29687 6.19688 4.87812C5.49063 4.94062 4.79063 5.05 4.09688 5.20312C4.05625 5.04375 4.02187 4.88125 3.9875 4.71875C3.69375 3.20625 3.8875 2.06562 4.38125 1.78125V1.78125ZM3.61562 10.0187C3.48437 9.98125 3.35625 9.94062 3.22813 9.89687C2.5625 9.6875 1.80625 9.35625 1.25937 8.92187C0.94375 8.70312 0.73125 8.36562 0.671875 7.9875C0.671875 7.41562 1.65937 6.68437 3.08437 6.1875C3.2625 6.125 3.44375 6.06875 3.625 6.01562C3.8375 6.69375 4.09375 7.35937 4.39062 8.00312C4.09062 8.65625 3.83125 9.33125 3.61562 10.0187V10.0187ZM7.25938 13.0812C6.74375 13.5531 6.14687 13.9281 5.49687 14.1844C5.15 14.35 4.75 14.3656 4.39375 14.225C3.89688 13.9375 3.69062 12.8344 3.97187 11.35C4.00625 11.175 4.04375 11 4.0875 10.8281C4.7875 10.9781 5.49375 11.0812 6.20937 11.1344C6.62187 11.7187 7.075 12.2781 7.55937 12.8031C7.45937 12.9 7.35938 12.9937 7.25938 13.0812ZM8.025 12.3219C7.70625 11.9781 7.3875 11.5969 7.07812 11.1875C7.37813 11.2 7.6875 11.2062 8 11.2062C8.32188 11.2062 8.6375 11.2 8.95 11.1844C8.6625 11.5812 8.35312 11.9594 8.025 12.3219V12.3219ZM12.1094 13.2594C12.0813 13.6406 11.8938 13.9969 11.5938 14.2375C11.0969 14.525 10.0375 14.15 8.89375 13.1687C8.7625 13.0562 8.63125 12.9344 8.49687 12.8094C8.975 12.2812 9.41563 11.7219 9.81563 11.1344C10.5313 11.075 11.2437 10.9656 11.9469 10.8062C11.9781 10.9344 12.0062 11.0625 12.0312 11.1875C12.1844 11.8625 12.2094 12.5656 12.1094 13.2594V13.2594ZM12.6781 9.9C12.5906 9.92812 12.5031 9.95625 12.4125 9.98125C12.1938 9.3 11.925 8.63437 11.6156 7.9875C11.9156 7.35 12.1688 6.69375 12.3813 6.02187C12.5438 6.06875 12.7 6.11875 12.85 6.16875C14.3063 6.66875 15.3281 7.4125 15.3281 7.98125C15.3281 8.59375 14.2375 9.38437 12.6781 9.9ZM8 9.43125C8.79062 9.43125 9.43125 8.79062 9.43125 8C9.43125 7.20937 8.79062 6.56875 8 6.56875C7.20938 6.56875 6.56875 7.20937 6.56875 8C6.56875 8.79062 7.20938 9.43125 8 9.43125Z" fill="white"/>
</svg>
