<svg width="43" height="11" viewBox="0 0 43 11" fill="none" xmlns="http://www.w3.org/2000/svg">
<path d="M0.884 10V0.77H5.044C5.47733 0.77 5.876 0.861 6.24 1.043C6.61267 1.225 6.93333 1.46333 7.202 1.758C7.47067 2.05267 7.67867 2.38633 7.826 2.759C7.982 3.13167 8.06 3.50867 8.06 3.89C8.06 4.176 8.02533 4.45333 7.956 4.722C7.88667 4.982 7.787 5.229 7.657 5.463C7.527 5.697 7.36667 5.90933 7.176 6.1C6.994 6.282 6.786 6.438 6.552 6.568L8.58 10H6.175L4.407 7.023H3.016V10H0.884ZM3.016 5.164H4.966C5.21733 5.164 5.434 5.047 5.616 4.813C5.798 4.57033 5.889 4.26267 5.889 3.89C5.889 3.50867 5.785 3.20533 5.577 2.98C5.369 2.75467 5.14367 2.642 4.901 2.642H3.016V5.164ZM12.4836 10.13C11.9029 10.13 11.3829 10.0347 10.9236 9.844C10.4729 9.65333 10.0916 9.39767 9.77955 9.077C9.46755 8.74767 9.22922 8.37067 9.06455 7.946C8.90855 7.51267 8.83055 7.062 8.83055 6.594C8.83055 6.126 8.90855 5.67967 9.06455 5.255C9.22922 4.82167 9.46755 4.44467 9.77955 4.124C10.0916 3.79467 10.4729 3.53467 10.9236 3.344C11.3829 3.14467 11.9029 3.045 12.4836 3.045C13.0642 3.045 13.5799 3.14467 14.0306 3.344C14.4812 3.53467 14.8626 3.79467 15.1746 4.124C15.4866 4.44467 15.7249 4.82167 15.8896 5.255C16.0542 5.67967 16.1366 6.126 16.1366 6.594C16.1366 7.062 16.0542 7.51267 15.8896 7.946C15.7336 8.37067 15.4996 8.74767 15.1876 9.077C14.8756 9.39767 14.4899 9.65333 14.0306 9.844C13.5799 10.0347 13.0642 10.13 12.4836 10.13ZM10.9626 6.594C10.9626 7.13133 11.1056 7.56467 11.3916 7.894C11.6776 8.21467 12.0416 8.375 12.4836 8.375C12.7002 8.375 12.8996 8.33167 13.0816 8.245C13.2636 8.15833 13.4196 8.037 13.5496 7.881C13.6882 7.725 13.7966 7.53867 13.8746 7.322C13.9526 7.09667 13.9916 6.854 13.9916 6.594C13.9916 6.05667 13.8486 5.62767 13.5626 5.307C13.2766 4.97767 12.9169 4.813 12.4836 4.813C12.2669 4.813 12.0632 4.85633 11.8726 4.943C11.6906 5.02967 11.5302 5.151 11.3916 5.307C11.2616 5.463 11.1576 5.65367 11.0796 5.879C11.0016 6.09567 10.9626 6.334 10.9626 6.594ZM20.4181 10.13C19.8375 10.13 19.3175 10.0347 18.8581 9.844C18.4075 9.65333 18.0261 9.39767 17.7141 9.077C17.4021 8.74767 17.1638 8.37067 16.9991 7.946C16.8431 7.51267 16.7651 7.062 16.7651 6.594C16.7651 6.126 16.8431 5.67967 16.9991 5.255C17.1638 4.82167 17.4021 4.44467 17.7141 4.124C18.0261 3.79467 18.4075 3.53467 18.8581 3.344C19.3175 3.14467 19.8375 3.045 20.4181 3.045C20.9988 3.045 21.5145 3.14467 21.9651 3.344C22.4158 3.53467 22.7971 3.79467 23.1091 4.124C23.4211 4.44467 23.6595 4.82167 23.8241 5.255C23.9888 5.67967 24.0711 6.126 24.0711 6.594C24.0711 7.062 23.9888 7.51267 23.8241 7.946C23.6681 8.37067 23.4341 8.74767 23.1221 9.077C22.8101 9.39767 22.4245 9.65333 21.9651 9.844C21.5145 10.0347 20.9988 10.13 20.4181 10.13ZM18.8971 6.594C18.8971 7.13133 19.0401 7.56467 19.3261 7.894C19.6121 8.21467 19.9761 8.375 20.4181 8.375C20.6348 8.375 20.8341 8.33167 21.0161 8.245C21.1981 8.15833 21.3541 8.037 21.4841 7.881C21.6228 7.725 21.7311 7.53867 21.8091 7.322C21.8871 7.09667 21.9261 6.854 21.9261 6.594C21.9261 6.05667 21.7831 5.62767 21.4971 5.307C21.2111 4.97767 20.8515 4.813 20.4181 4.813C20.2015 4.813 19.9978 4.85633 19.8071 4.943C19.6251 5.02967 19.4648 5.151 19.3261 5.307C19.1961 5.463 19.0921 5.65367 19.0141 5.879C18.9361 6.09567 18.8971 6.334 18.8971 6.594ZM29.4338 9.636C29.1478 9.75733 28.8185 9.87 28.4458 9.974C28.0818 10.078 27.7135 10.13 27.3408 10.13C27.0808 10.13 26.8338 10.0953 26.5998 10.026C26.3745 9.96533 26.1752 9.86567 26.0018 9.727C25.8285 9.57967 25.6898 9.389 25.5858 9.155C25.4905 8.921 25.4428 8.63933 25.4428 8.31V4.748H24.5718V3.175H25.4428V1.004H27.5228V3.175H28.9138V4.748H27.5228V7.595C27.5228 7.82033 27.5792 7.985 27.6918 8.089C27.8045 8.18433 27.9475 8.232 28.1208 8.232C28.2768 8.232 28.4372 8.206 28.6018 8.154C28.7665 8.102 28.9095 8.04567 29.0308 7.985L29.4338 9.636ZM34.264 8.18C34.628 8.18 34.9357 8.10633 35.187 7.959C35.4384 7.803 35.642 7.59933 35.798 7.348C35.954 7.09667 36.0624 6.81067 36.123 6.49C36.1924 6.16067 36.227 5.827 36.227 5.489V0.77H38.359V5.489C38.359 6.13033 38.2767 6.72833 38.112 7.283C37.956 7.83767 37.709 8.323 37.371 8.739C37.0417 9.155 36.617 9.48433 36.097 9.727C35.5857 9.961 34.9747 10.078 34.264 10.078C33.5274 10.078 32.899 9.95233 32.379 9.701C31.859 9.44967 31.4344 9.116 31.105 8.7C30.7844 8.27533 30.546 7.78567 30.39 7.231C30.2427 6.67633 30.169 6.09567 30.169 5.489V0.77H32.301V5.489C32.301 5.84433 32.3357 6.18233 32.405 6.503C32.4744 6.82367 32.587 7.10967 32.743 7.361C32.899 7.61233 33.0984 7.81167 33.341 7.959C33.5924 8.10633 33.9 8.18 34.264 8.18ZM40.011 10V0.77H42.143V10H40.011Z" fill="#C7D1DB"/>
</svg>
