<svg width="45" height="10" viewBox="0 0 45 10" fill="none" xmlns="http://www.w3.org/2000/svg">
<path d="M0 9.86111V0H4.5372C5.00982 0 5.44464 0.0972222 5.84164 0.291667C6.2481 0.486111 6.59784 0.740741 6.89087 1.05556C7.1839 1.37037 7.41076 1.72685 7.57145 2.125C7.74159 2.52315 7.82667 2.92593 7.82667 3.33333C7.82667 3.63889 7.78886 3.93518 7.71324 4.22222C7.63762 4.5 7.52891 4.76389 7.38712 5.01389C7.24534 5.26389 7.07047 5.49074 6.86251 5.69444C6.66401 5.88889 6.43715 6.05556 6.18193 6.19444L8.39381 9.86111H5.77075L3.84244 6.68056H2.32531V9.86111H0ZM2.32531 4.69444H4.45213C4.72625 4.69444 4.96256 4.56944 5.16106 4.31944C5.35956 4.06018 5.45882 3.73148 5.45882 3.33333C5.45882 2.92593 5.34539 2.60185 5.11853 2.36111C4.89167 2.12037 4.6459 2 4.38123 2H2.32531V4.69444Z" fill="#393F49"/>
<path d="M12.6513 10C12.018 10 11.4508 9.89815 10.9499 9.69444C10.4583 9.49074 10.0424 9.21759 9.70214 8.875C9.36185 8.52315 9.1019 8.12037 8.92231 7.66667C8.75216 7.2037 8.66709 6.72222 8.66709 6.22222C8.66709 5.72222 8.75216 5.24537 8.92231 4.79167C9.1019 4.3287 9.36185 3.92593 9.70214 3.58333C10.0424 3.23148 10.4583 2.9537 10.9499 2.75C11.4508 2.53704 12.018 2.43056 12.6513 2.43056C13.2846 2.43056 13.8471 2.53704 14.3386 2.75C14.8301 2.9537 15.246 3.23148 15.5863 3.58333C15.9266 3.92593 16.1865 4.3287 16.3661 4.79167C16.5457 5.24537 16.6355 5.72222 16.6355 6.22222C16.6355 6.72222 16.5457 7.2037 16.3661 7.66667C16.196 8.12037 15.9408 8.52315 15.6005 8.875C15.2602 9.21759 14.8396 9.49074 14.3386 9.69444C13.8471 9.89815 13.2846 10 12.6513 10ZM10.9924 6.22222C10.9924 6.7963 11.1484 7.25926 11.4603 7.61111C11.7722 7.9537 12.1692 8.125 12.6513 8.125C12.8876 8.125 13.105 8.0787 13.3035 7.98611C13.502 7.89352 13.6722 7.76389 13.814 7.59722C13.9652 7.43055 14.0834 7.23148 14.1684 7C14.2535 6.75926 14.296 6.5 14.296 6.22222C14.296 5.64815 14.1401 5.18981 13.8282 4.84722C13.5162 4.49537 13.1239 4.31944 12.6513 4.31944C12.415 4.31944 12.1929 4.36574 11.9849 4.45833C11.7864 4.55093 11.6115 4.68056 11.4603 4.84722C11.3185 5.01389 11.2051 5.21759 11.12 5.45833C11.0349 5.68981 10.9924 5.94444 10.9924 6.22222Z" fill="#393F49"/>
<path d="M21.3053 10C20.672 10 20.1049 9.89815 19.6039 9.69444C19.1124 9.49074 18.6964 9.21759 18.3562 8.875C18.0159 8.52315 17.7559 8.12037 17.5763 7.66667C17.4062 7.2037 17.3211 6.72222 17.3211 6.22222C17.3211 5.72222 17.4062 5.24537 17.5763 4.79167C17.7559 4.3287 18.0159 3.92593 18.3562 3.58333C18.6964 3.23148 19.1124 2.9537 19.6039 2.75C20.1049 2.53704 20.672 2.43056 21.3053 2.43056C21.9386 2.43056 22.5011 2.53704 22.9926 2.75C23.4841 2.9537 23.9 3.23148 24.2403 3.58333C24.5806 3.92593 24.8406 4.3287 25.0202 4.79167C25.1998 5.24537 25.2896 5.72222 25.2896 6.22222C25.2896 6.72222 25.1998 7.2037 25.0202 7.66667C24.85 8.12037 24.5948 8.52315 24.2545 8.875C23.9142 9.21759 23.4936 9.49074 22.9926 9.69444C22.5011 9.89815 21.9386 10 21.3053 10ZM19.6464 6.22222C19.6464 6.7963 19.8024 7.25926 20.1143 7.61111C20.4262 7.9537 20.8233 8.125 21.3053 8.125C21.5416 8.125 21.759 8.0787 21.9576 7.98611C22.1561 7.89352 22.3262 7.76389 22.468 7.59722C22.6192 7.43055 22.7374 7.23148 22.8225 7C22.9075 6.75926 22.9501 6.5 22.9501 6.22222C22.9501 5.64815 22.7941 5.18981 22.4822 4.84722C22.1702 4.49537 21.778 4.31944 21.3053 4.31944C21.069 4.31944 20.8469 4.36574 20.6389 4.45833C20.4404 4.55093 20.2656 4.68056 20.1143 4.84722C19.9725 5.01389 19.8591 5.21759 19.774 5.45833C19.689 5.68981 19.6464 5.94444 19.6464 6.22222Z" fill="#393F49"/>
<path d="M31.1385 9.47222C30.8266 9.60185 30.4674 9.72222 30.0609 9.83333C29.6639 9.94444 29.2622 10 28.8557 10C28.5722 10 28.3028 9.96296 28.0475 9.88889C27.8018 9.82407 27.5844 9.71759 27.3953 9.56944C27.2063 9.41204 27.055 9.20833 26.9416 8.95833C26.8376 8.70833 26.7856 8.40741 26.7856 8.05555V4.25H25.8357V2.56944H26.7856V0.25H29.0542V2.56944H30.5714V4.25H29.0542V7.29167C29.0542 7.53241 29.1157 7.70833 29.2386 7.81944C29.3614 7.9213 29.5174 7.97222 29.7065 7.97222C29.8766 7.97222 30.0515 7.94444 30.2311 7.88889C30.4107 7.83333 30.5666 7.77315 30.699 7.70833L31.1385 9.47222Z" fill="#393F49"/>
<path d="M36.4067 7.91667C36.8037 7.91667 37.1393 7.83796 37.4134 7.68055C37.6875 7.51389 37.9096 7.2963 38.0798 7.02778C38.2499 6.75926 38.3681 6.4537 38.4342 6.11111C38.5099 5.75926 38.5477 5.40278 38.5477 5.04167V0H40.873V5.04167C40.873 5.72685 40.7832 6.36574 40.6036 6.95833C40.4334 7.55093 40.1641 8.06944 39.7954 8.51389C39.4362 8.95833 38.973 9.31018 38.4059 9.56944C37.8482 9.81944 37.1818 9.94444 36.4067 9.94444C35.6032 9.94444 34.9179 9.81018 34.3508 9.54167C33.7836 9.27315 33.3204 8.91667 32.9613 8.47222C32.6115 8.01852 32.3516 7.49537 32.1814 6.90278C32.0207 6.31018 31.9404 5.68981 31.9404 5.04167V0H34.2657V5.04167C34.2657 5.4213 34.3035 5.78241 34.3791 6.125C34.4547 6.46759 34.5776 6.77315 34.7478 7.04167C34.9179 7.31018 35.1353 7.52315 35.4 7.68055C35.6741 7.83796 36.0097 7.91667 36.4067 7.91667Z" fill="#393F49"/>
<path d="M42.6747 9.86111V0H45V9.86111H42.6747Z" fill="#393F49"/>
</svg>
