<svg width="1092" height="400" viewBox="0 0 1092 400" fill="none" xmlns="http://www.w3.org/2000/svg">
<rect width="1092" height="400" fill="white"/>
<rect width="1092" height="400" fill="#F8F9FA"/>
<path d="M484.636 208.192C481.996 208.192 479.884 207.48 478.3 206.056L479.068 204.544C479.9 205.248 480.748 205.752 481.612 206.056C482.492 206.36 483.508 206.512 484.66 206.512C486.02 206.512 487.068 206.248 487.804 205.72C488.54 205.192 488.908 204.448 488.908 203.488C488.908 202.928 488.732 202.472 488.38 202.12C488.028 201.768 487.564 201.488 486.988 201.28C486.412 201.072 485.636 200.856 484.66 200.632C483.348 200.328 482.268 200.008 481.42 199.672C480.588 199.336 479.908 198.856 479.38 198.232C478.868 197.608 478.612 196.792 478.612 195.784C478.612 194.824 478.86 193.976 479.356 193.24C479.868 192.488 480.588 191.912 481.516 191.512C482.46 191.096 483.548 190.888 484.78 190.888C485.948 190.888 487.036 191.072 488.044 191.44C489.068 191.808 489.932 192.336 490.636 193.024L489.892 194.536C489.092 193.848 488.276 193.352 487.444 193.048C486.628 192.728 485.74 192.568 484.78 192.568C483.468 192.568 482.436 192.848 481.684 193.408C480.948 193.952 480.58 194.72 480.58 195.712C480.58 196.56 480.908 197.2 481.564 197.632C482.22 198.064 483.212 198.432 484.54 198.736C485.996 199.088 487.14 199.416 487.972 199.72C488.804 200.008 489.492 200.448 490.036 201.04C490.596 201.632 490.876 202.424 490.876 203.416C490.876 204.376 490.62 205.216 490.108 205.936C489.612 206.656 488.892 207.216 487.948 207.616C487.004 208 485.9 208.192 484.636 208.192ZM503.576 202.456H495.032C495.096 203.816 495.464 204.848 496.136 205.552C496.808 206.24 497.76 206.584 498.992 206.584C500.352 206.584 501.6 206.12 502.736 205.192L503.384 206.608C502.872 207.088 502.216 207.472 501.416 207.76C500.616 208.032 499.8 208.168 498.968 208.168C497.144 208.168 495.704 207.632 494.648 206.56C493.608 205.488 493.088 204.008 493.088 202.12C493.088 200.92 493.32 199.864 493.784 198.952C494.248 198.024 494.896 197.304 495.728 196.792C496.576 196.28 497.536 196.024 498.608 196.024C500.16 196.024 501.376 196.536 502.256 197.56C503.136 198.568 503.576 199.96 503.576 201.736V202.456ZM498.632 197.536C497.608 197.536 496.784 197.856 496.16 198.496C495.552 199.136 495.192 200.04 495.08 201.208H501.872C501.84 200.024 501.544 199.12 500.984 198.496C500.424 197.856 499.64 197.536 498.632 197.536ZM511.385 208.168C510.233 208.168 509.233 207.92 508.385 207.424C507.537 206.928 506.881 206.232 506.417 205.336C505.969 204.424 505.745 203.36 505.745 202.144C505.745 200.928 505.977 199.864 506.441 198.952C506.921 198.024 507.585 197.304 508.433 196.792C509.297 196.28 510.305 196.024 511.457 196.024C512.241 196.024 513.009 196.168 513.761 196.456C514.513 196.728 515.121 197.096 515.585 197.56L514.937 199C513.833 198.104 512.713 197.656 511.577 197.656C510.377 197.656 509.441 198.048 508.769 198.832C508.097 199.616 507.761 200.72 507.761 202.144C507.761 203.552 508.097 204.64 508.769 205.408C509.441 206.176 510.377 206.56 511.577 206.56C512.713 206.56 513.833 206.112 514.937 205.216L515.585 206.656C515.089 207.12 514.465 207.488 513.713 207.76C512.961 208.032 512.185 208.168 511.385 208.168ZM522.773 208.168C521.669 208.168 520.693 207.92 519.845 207.424C519.013 206.928 518.365 206.224 517.901 205.312C517.453 204.384 517.229 203.312 517.229 202.096C517.229 200.88 517.453 199.816 517.901 198.904C518.365 197.976 519.013 197.264 519.845 196.768C520.693 196.272 521.669 196.024 522.773 196.024C523.877 196.024 524.853 196.272 525.701 196.768C526.549 197.264 527.197 197.976 527.645 198.904C528.109 199.816 528.341 200.88 528.341 202.096C528.341 203.312 528.109 204.384 527.645 205.312C527.197 206.224 526.549 206.928 525.701 207.424C524.853 207.92 523.877 208.168 522.773 208.168ZM522.773 206.56C523.925 206.56 524.805 206.184 525.413 205.432C526.037 204.664 526.349 203.552 526.349 202.096C526.349 200.672 526.037 199.576 525.413 198.808C524.789 198.024 523.909 197.632 522.773 197.632C521.637 197.632 520.757 198.024 520.133 198.808C519.509 199.576 519.197 200.672 519.197 202.096C519.197 203.536 519.501 204.64 520.109 205.408C520.733 206.176 521.621 206.56 522.773 206.56ZM537.118 196.024C539.918 196.024 541.318 197.568 541.318 200.656V208H539.374V200.776C539.374 199.688 539.158 198.896 538.726 198.4C538.31 197.904 537.638 197.656 536.71 197.656C535.638 197.656 534.782 197.984 534.142 198.64C533.502 199.296 533.182 200.184 533.182 201.304V208H531.238V196.312H533.158V198.232C533.542 197.512 534.078 196.968 534.766 196.6C535.454 196.216 536.238 196.024 537.118 196.024ZM555.246 191.08V208H553.302V205.864C552.95 206.6 552.43 207.168 551.742 207.568C551.07 207.968 550.278 208.168 549.366 208.168C548.342 208.168 547.438 207.912 546.654 207.4C545.87 206.888 545.262 206.176 544.83 205.264C544.398 204.336 544.182 203.264 544.182 202.048C544.182 200.848 544.398 199.792 544.83 198.88C545.262 197.968 545.87 197.264 546.654 196.768C547.438 196.272 548.342 196.024 549.366 196.024C550.278 196.024 551.07 196.224 551.742 196.624C552.43 197.024 552.95 197.592 553.302 198.328V191.08H555.246ZM549.75 206.56C550.886 206.56 551.758 206.176 552.366 205.408C552.99 204.624 553.302 203.52 553.302 202.096C553.302 200.672 552.99 199.576 552.366 198.808C551.758 198.04 550.886 197.656 549.75 197.656C548.614 197.656 547.726 198.04 547.086 198.808C546.462 199.576 546.15 200.656 546.15 202.048C546.15 203.472 546.462 204.584 547.086 205.384C547.726 206.168 548.614 206.56 549.75 206.56ZM570.698 208.192C568.058 208.192 565.946 207.48 564.362 206.056L565.13 204.544C565.962 205.248 566.81 205.752 567.674 206.056C568.554 206.36 569.57 206.512 570.722 206.512C572.082 206.512 573.13 206.248 573.866 205.72C574.602 205.192 574.97 204.448 574.97 203.488C574.97 202.928 574.794 202.472 574.442 202.12C574.09 201.768 573.626 201.488 573.05 201.28C572.474 201.072 571.698 200.856 570.722 200.632C569.41 200.328 568.33 200.008 567.482 199.672C566.65 199.336 565.97 198.856 565.442 198.232C564.93 197.608 564.674 196.792 564.674 195.784C564.674 194.824 564.922 193.976 565.418 193.24C565.93 192.488 566.65 191.912 567.578 191.512C568.522 191.096 569.61 190.888 570.842 190.888C572.01 190.888 573.098 191.072 574.106 191.44C575.13 191.808 575.994 192.336 576.698 193.024L575.954 194.536C575.154 193.848 574.338 193.352 573.506 193.048C572.69 192.728 571.802 192.568 570.842 192.568C569.53 192.568 568.498 192.848 567.746 193.408C567.01 193.952 566.642 194.72 566.642 195.712C566.642 196.56 566.97 197.2 567.626 197.632C568.282 198.064 569.274 198.432 570.602 198.736C572.058 199.088 573.202 199.416 574.034 199.72C574.866 200.008 575.554 200.448 576.098 201.04C576.658 201.632 576.938 202.424 576.938 203.416C576.938 204.376 576.682 205.216 576.17 205.936C575.674 206.656 574.954 207.216 574.01 207.616C573.066 208 571.962 208.192 570.698 208.192ZM579.847 191.08H581.791V208H579.847V191.08ZM585.425 196.312H587.369V208H585.425V196.312ZM587.585 191.248V193.432H585.233V191.248H587.585ZM601.371 191.08V208H599.427V205.864C599.075 206.6 598.555 207.168 597.867 207.568C597.195 207.968 596.403 208.168 595.491 208.168C594.467 208.168 593.563 207.912 592.779 207.4C591.995 206.888 591.387 206.176 590.955 205.264C590.523 204.336 590.307 203.264 590.307 202.048C590.307 200.848 590.523 199.792 590.955 198.88C591.387 197.968 591.995 197.264 592.779 196.768C593.563 196.272 594.467 196.024 595.491 196.024C596.403 196.024 597.195 196.224 597.867 196.624C598.555 197.024 599.075 197.592 599.427 198.328V191.08H601.371ZM595.875 206.56C597.011 206.56 597.883 206.176 598.491 205.408C599.115 204.624 599.427 203.52 599.427 202.096C599.427 200.672 599.115 199.576 598.491 198.808C597.883 198.04 597.011 197.656 595.875 197.656C594.739 197.656 593.851 198.04 593.211 198.808C592.587 199.576 592.275 200.656 592.275 202.048C592.275 203.472 592.587 204.584 593.211 205.384C593.851 206.168 594.739 206.56 595.875 206.56ZM614.764 202.456H606.22C606.284 203.816 606.652 204.848 607.324 205.552C607.996 206.24 608.948 206.584 610.18 206.584C611.54 206.584 612.788 206.12 613.924 205.192L614.572 206.608C614.06 207.088 613.404 207.472 612.604 207.76C611.804 208.032 610.988 208.168 610.156 208.168C608.332 208.168 606.892 207.632 605.836 206.56C604.796 205.488 604.276 204.008 604.276 202.12C604.276 200.92 604.508 199.864 604.972 198.952C605.436 198.024 606.084 197.304 606.916 196.792C607.764 196.28 608.724 196.024 609.796 196.024C611.348 196.024 612.564 196.536 613.444 197.56C614.324 198.568 614.764 199.96 614.764 201.736V202.456ZM609.82 197.536C608.796 197.536 607.972 197.856 607.348 198.496C606.74 199.136 606.38 200.04 606.268 201.208H613.06C613.028 200.024 612.732 199.12 612.172 198.496C611.612 197.856 610.828 197.536 609.82 197.536Z" fill="#D7D9DB"/>
</svg>
