<svg width="1092" height="400" viewBox="0 0 1092 400" fill="none" xmlns="http://www.w3.org/2000/svg">
<rect width="1092" height="400" fill="#F8F9FA"/>
<path d="M495.272 191.08H505.736V192.736H497.216V198.568H505.256V200.224H497.216V208H495.272V191.08ZM508.343 196.312H510.287V208H508.343V196.312ZM510.503 191.248V193.432H508.151V191.248H510.503ZM520.545 197.704L519.273 197.824C518.073 197.936 517.201 198.312 516.657 198.952C516.129 199.592 515.865 200.384 515.865 201.328V208H513.921V196.312H515.817V198.352C516.473 196.992 517.761 196.232 519.681 196.072L520.377 196.024L520.545 197.704ZM526.225 208.168C524.257 208.168 522.697 207.664 521.545 206.656L522.193 205.216C522.817 205.712 523.449 206.072 524.089 206.296C524.745 206.504 525.481 206.608 526.297 206.608C527.161 206.608 527.817 206.464 528.265 206.176C528.729 205.872 528.961 205.44 528.961 204.88C528.961 204.416 528.809 204.048 528.505 203.776C528.201 203.504 527.697 203.288 526.993 203.128L525.025 202.672C524.033 202.448 523.273 202.064 522.745 201.52C522.217 200.976 521.953 200.304 521.953 199.504C521.953 198.464 522.361 197.624 523.177 196.984C523.993 196.344 525.081 196.024 526.441 196.024C527.257 196.024 528.033 196.16 528.769 196.432C529.505 196.688 530.121 197.064 530.617 197.56L529.969 198.976C528.897 198.064 527.721 197.608 526.441 197.608C525.625 197.608 524.985 197.768 524.521 198.088C524.073 198.392 523.849 198.824 523.849 199.384C523.849 199.848 523.985 200.224 524.257 200.512C524.545 200.784 525.001 200.992 525.625 201.136L527.617 201.616C528.705 201.872 529.513 202.264 530.041 202.792C530.569 203.304 530.833 203.976 530.833 204.808C530.833 205.832 530.417 206.648 529.585 207.256C528.769 207.864 527.649 208.168 526.225 208.168ZM538.815 206.608C539.167 206.608 539.519 206.584 539.871 206.536L539.775 208.072C539.407 208.136 539.007 208.168 538.575 208.168C537.167 208.168 536.103 207.8 535.383 207.064C534.679 206.328 534.327 205.304 534.327 203.992V197.848H532.047V196.312H534.327V192.76H536.271V196.312H539.583V197.848H536.271V203.848C536.271 205.688 537.119 206.608 538.815 206.608ZM553.687 208.192C551.047 208.192 548.935 207.48 547.351 206.056L548.119 204.544C548.951 205.248 549.799 205.752 550.663 206.056C551.543 206.36 552.559 206.512 553.711 206.512C555.071 206.512 556.119 206.248 556.855 205.72C557.591 205.192 557.959 204.448 557.959 203.488C557.959 202.928 557.783 202.472 557.431 202.12C557.079 201.768 556.615 201.488 556.039 201.28C555.463 201.072 554.687 200.856 553.711 200.632C552.399 200.328 551.319 200.008 550.471 199.672C549.639 199.336 548.959 198.856 548.431 198.232C547.919 197.608 547.663 196.792 547.663 195.784C547.663 194.824 547.911 193.976 548.407 193.24C548.919 192.488 549.639 191.912 550.567 191.512C551.511 191.096 552.599 190.888 553.831 190.888C554.999 190.888 556.087 191.072 557.095 191.44C558.119 191.808 558.983 192.336 559.687 193.024L558.943 194.536C558.143 193.848 557.327 193.352 556.495 193.048C555.679 192.728 554.791 192.568 553.831 192.568C552.519 192.568 551.487 192.848 550.735 193.408C549.999 193.952 549.631 194.72 549.631 195.712C549.631 196.56 549.959 197.2 550.615 197.632C551.271 198.064 552.263 198.432 553.591 198.736C555.047 199.088 556.191 199.416 557.023 199.72C557.855 200.008 558.543 200.448 559.087 201.04C559.647 201.632 559.927 202.424 559.927 203.416C559.927 204.376 559.671 205.216 559.159 205.936C558.663 206.656 557.943 207.216 556.999 207.616C556.055 208 554.951 208.192 553.687 208.192ZM562.835 191.08H564.779V208H562.835V191.08ZM568.413 196.312H570.357V208H568.413V196.312ZM570.573 191.248V193.432H568.221V191.248H570.573ZM584.359 191.08V208H582.415V205.864C582.063 206.6 581.543 207.168 580.855 207.568C580.183 207.968 579.391 208.168 578.479 208.168C577.455 208.168 576.551 207.912 575.767 207.4C574.983 206.888 574.375 206.176 573.943 205.264C573.511 204.336 573.295 203.264 573.295 202.048C573.295 200.848 573.511 199.792 573.943 198.88C574.375 197.968 574.983 197.264 575.767 196.768C576.551 196.272 577.455 196.024 578.479 196.024C579.391 196.024 580.183 196.224 580.855 196.624C581.543 197.024 582.063 197.592 582.415 198.328V191.08H584.359ZM578.863 206.56C579.999 206.56 580.871 206.176 581.479 205.408C582.103 204.624 582.415 203.52 582.415 202.096C582.415 200.672 582.103 199.576 581.479 198.808C580.871 198.04 579.999 197.656 578.863 197.656C577.727 197.656 576.839 198.04 576.199 198.808C575.575 199.576 575.263 200.656 575.263 202.048C575.263 203.472 575.575 204.584 576.199 205.384C576.839 206.168 577.727 206.56 578.863 206.56ZM597.752 202.456H589.208C589.272 203.816 589.64 204.848 590.312 205.552C590.984 206.24 591.936 206.584 593.168 206.584C594.528 206.584 595.776 206.12 596.912 205.192L597.56 206.608C597.048 207.088 596.392 207.472 595.592 207.76C594.792 208.032 593.976 208.168 593.144 208.168C591.32 208.168 589.88 207.632 588.824 206.56C587.784 205.488 587.264 204.008 587.264 202.12C587.264 200.92 587.496 199.864 587.96 198.952C588.424 198.024 589.072 197.304 589.904 196.792C590.752 196.28 591.712 196.024 592.784 196.024C594.336 196.024 595.552 196.536 596.432 197.56C597.312 198.568 597.752 199.96 597.752 201.736V202.456ZM592.808 197.536C591.784 197.536 590.96 197.856 590.336 198.496C589.728 199.136 589.368 200.04 589.256 201.208H596.048C596.016 200.024 595.72 199.12 595.16 198.496C594.6 197.856 593.816 197.536 592.808 197.536Z" fill="#D7D9DB"/>
</svg>
