<svg width="1092" height="400" viewBox="0 0 1092 400" fill="none" xmlns="http://www.w3.org/2000/svg">
<rect width="1092" height="400" fill="white"/>
<rect width="1092" height="400" fill="#F8F9FA"/>
<path d="M495.398 192.76H489.518V191.08H503.294V192.76H497.39V208H495.398V192.76ZM511.254 196.024C514.054 196.024 515.454 197.568 515.454 200.656V208H513.51V200.776C513.51 199.688 513.294 198.896 512.862 198.4C512.446 197.904 511.774 197.656 510.846 197.656C509.774 197.656 508.918 197.984 508.278 198.64C507.638 199.296 507.318 200.184 507.318 201.304V208H505.374V191.08H507.318V198.184C507.702 197.48 508.23 196.944 508.902 196.576C509.59 196.208 510.374 196.024 511.254 196.024ZM519.015 196.312H520.959V208H519.015V196.312ZM521.175 191.248V193.432H518.823V191.248H521.175ZM531.217 197.704L529.945 197.824C528.745 197.936 527.873 198.312 527.329 198.952C526.801 199.592 526.537 200.384 526.537 201.328V208H524.593V196.312H526.489V198.352C527.145 196.992 528.433 196.232 530.353 196.072L531.049 196.024L531.217 197.704ZM543.188 191.08V208H541.244V205.864C540.892 206.6 540.372 207.168 539.684 207.568C539.012 207.968 538.22 208.168 537.308 208.168C536.284 208.168 535.38 207.912 534.596 207.4C533.812 206.888 533.204 206.176 532.772 205.264C532.34 204.336 532.124 203.264 532.124 202.048C532.124 200.848 532.34 199.792 532.772 198.88C533.204 197.968 533.812 197.264 534.596 196.768C535.38 196.272 536.284 196.024 537.308 196.024C538.22 196.024 539.012 196.224 539.684 196.624C540.372 197.024 540.892 197.592 541.244 198.328V191.08H543.188ZM537.692 206.56C538.828 206.56 539.7 206.176 540.308 205.408C540.932 204.624 541.244 203.52 541.244 202.096C541.244 200.672 540.932 199.576 540.308 198.808C539.7 198.04 538.828 197.656 537.692 197.656C536.556 197.656 535.668 198.04 535.028 198.808C534.404 199.576 534.092 200.656 534.092 202.048C534.092 203.472 534.404 204.584 535.028 205.384C535.668 206.168 536.556 206.56 537.692 206.56ZM558.64 208.192C556 208.192 553.888 207.48 552.304 206.056L553.072 204.544C553.904 205.248 554.752 205.752 555.616 206.056C556.496 206.36 557.512 206.512 558.664 206.512C560.024 206.512 561.072 206.248 561.808 205.72C562.544 205.192 562.912 204.448 562.912 203.488C562.912 202.928 562.736 202.472 562.384 202.12C562.032 201.768 561.568 201.488 560.992 201.28C560.416 201.072 559.64 200.856 558.664 200.632C557.352 200.328 556.272 200.008 555.424 199.672C554.592 199.336 553.912 198.856 553.384 198.232C552.872 197.608 552.616 196.792 552.616 195.784C552.616 194.824 552.864 193.976 553.36 193.24C553.872 192.488 554.592 191.912 555.52 191.512C556.464 191.096 557.552 190.888 558.784 190.888C559.952 190.888 561.04 191.072 562.048 191.44C563.072 191.808 563.936 192.336 564.64 193.024L563.896 194.536C563.096 193.848 562.28 193.352 561.448 193.048C560.632 192.728 559.744 192.568 558.784 192.568C557.472 192.568 556.44 192.848 555.688 193.408C554.952 193.952 554.584 194.72 554.584 195.712C554.584 196.56 554.912 197.2 555.568 197.632C556.224 198.064 557.216 198.432 558.544 198.736C560 199.088 561.144 199.416 561.976 199.72C562.808 200.008 563.496 200.448 564.04 201.04C564.6 201.632 564.88 202.424 564.88 203.416C564.88 204.376 564.624 205.216 564.112 205.936C563.616 206.656 562.896 207.216 561.952 207.616C561.008 208 559.904 208.192 558.64 208.192ZM567.788 191.08H569.732V208H567.788V191.08ZM573.366 196.312H575.31V208H573.366V196.312ZM575.526 191.248V193.432H573.174V191.248H575.526ZM589.313 191.08V208H587.369V205.864C587.017 206.6 586.497 207.168 585.809 207.568C585.137 207.968 584.345 208.168 583.433 208.168C582.409 208.168 581.505 207.912 580.721 207.4C579.937 206.888 579.329 206.176 578.897 205.264C578.465 204.336 578.249 203.264 578.249 202.048C578.249 200.848 578.465 199.792 578.897 198.88C579.329 197.968 579.937 197.264 580.721 196.768C581.505 196.272 582.409 196.024 583.433 196.024C584.345 196.024 585.137 196.224 585.809 196.624C586.497 197.024 587.017 197.592 587.369 198.328V191.08H589.313ZM583.817 206.56C584.953 206.56 585.825 206.176 586.433 205.408C587.057 204.624 587.369 203.52 587.369 202.096C587.369 200.672 587.057 199.576 586.433 198.808C585.825 198.04 584.953 197.656 583.817 197.656C582.681 197.656 581.793 198.04 581.153 198.808C580.529 199.576 580.217 200.656 580.217 202.048C580.217 203.472 580.529 204.584 581.153 205.384C581.793 206.168 582.681 206.56 583.817 206.56ZM602.705 202.456H594.161C594.225 203.816 594.593 204.848 595.265 205.552C595.937 206.24 596.889 206.584 598.121 206.584C599.481 206.584 600.729 206.12 601.865 205.192L602.513 206.608C602.001 207.088 601.345 207.472 600.545 207.76C599.745 208.032 598.929 208.168 598.097 208.168C596.273 208.168 594.833 207.632 593.777 206.56C592.737 205.488 592.217 204.008 592.217 202.12C592.217 200.92 592.449 199.864 592.913 198.952C593.377 198.024 594.025 197.304 594.857 196.792C595.705 196.28 596.665 196.024 597.737 196.024C599.289 196.024 600.505 196.536 601.385 197.56C602.265 198.568 602.705 199.96 602.705 201.736V202.456ZM597.761 197.536C596.737 197.536 595.913 197.856 595.289 198.496C594.681 199.136 594.321 200.04 594.209 201.208H601.001C600.969 200.024 600.673 199.12 600.113 198.496C599.553 197.856 598.769 197.536 597.761 197.536Z" fill="#D7D9DB"/>
</svg>
